<svg width="92" height="92" viewBox="0 0 92 92" fill="none" xmlns="http://www.w3.org/2000/svg">
<g filter="url(#filter0_ii_1_388)">
<path d="M79.0625 11.9792L11.9792 79.0625M31.1458 19.1667C31.1458 25.7826 25.7826 31.1458 19.1667 31.1458C12.5508 31.1458 7.1875 25.7826 7.1875 19.1667C7.1875 12.5508 12.5508 7.1875 19.1667 7.1875C25.7826 7.1875 31.1458 12.5508 31.1458 19.1667ZM83.8542 71.875C83.8542 78.4909 78.4909 83.8542 71.875 83.8542C65.2591 83.8542 59.8958 78.4909 59.8958 71.875C59.8958 65.2591 65.2591 59.8958 71.875 59.8958C78.4909 59.8958 83.8542 65.2591 83.8542 71.875Z" stroke="black" stroke-width="14.375" stroke-linecap="round" stroke-linejoin="round"/>
</g>
<defs>
<filter id="filter0_ii_1_388" x="-4.79167" y="0" width="100.625" height="95.8337" filterUnits="userSpaceOnUse" color-interpolation-filters="sRGB">
<feFlood flood-opacity="0" result="BackgroundImageFix"/>
<feBlend mode="normal" in="SourceGraphic" in2="BackgroundImageFix" result="shape"/>
<feColorMatrix in="SourceAlpha" type="matrix" values="0 0 0 0 0 0 0 0 0 0 0 0 0 0 0 0 0 0 127 0" result="hardAlpha"/>
<feOffset dx="-4.79167" dy="4.79167"/>
<feGaussianBlur stdDeviation="4.79167"/>
<feComposite in2="hardAlpha" operator="arithmetic" k2="-1" k3="1"/>
<feColorMatrix type="matrix" values="0 0 0 0 1 0 0 0 0 1 0 0 0 0 1 0 0 0 0.25 0"/>
<feBlend mode="normal" in2="shape" result="effect1_innerShadow_1_388"/>
<feColorMatrix in="SourceAlpha" type="matrix" values="0 0 0 0 0 0 0 0 0 0 0 0 0 0 0 0 0 0 127 0" result="hardAlpha"/>
<feOffset dx="4.79167" dy="4.79167"/>
<feGaussianBlur stdDeviation="7.1875"/>
<feComposite in2="hardAlpha" operator="arithmetic" k2="-1" k3="1"/>
<feColorMatrix type="matrix" values="0 0 0 0 0.2 0 0 0 0 0.199167 0 0 0 0 0.199217 0 0 0 0.1 0"/>
<feBlend mode="normal" in2="effect1_innerShadow_1_388" result="effect2_innerShadow_1_388"/>
</filter>
</defs>
</svg>
