<svg width="93" height="93" viewBox="0 0 93 93" fill="none" xmlns="http://www.w3.org/2000/svg">
<g filter="url(#filter0_ii_1_375)">
<path d="M38.1677 50.2523C39.9034 52.5727 42.1179 54.4927 44.6609 55.8821C47.2038 57.2714 50.0159 58.0976 52.9063 58.3046C55.7966 58.5117 58.6977 58.0946 61.4127 57.0818C64.1278 56.069 66.5932 54.4842 68.6419 52.4348L80.7669 40.3098C84.448 36.4985 86.4849 31.3938 86.4388 26.0952C86.3928 20.7967 84.2675 15.7282 80.5207 11.9814C76.7739 8.2346 71.7054 6.10931 66.4069 6.06326C61.1083 6.01722 56.0036 8.05411 52.1923 11.7352L45.2406 18.6465M54.3344 42.169C52.5987 39.8485 50.3842 37.9285 47.8412 36.5392C45.2983 35.1498 42.4862 34.3236 39.5958 34.1166C36.7055 33.9096 33.8044 34.3267 31.0894 35.3394C28.3743 36.3522 25.9089 37.9371 23.8602 39.9865L11.7352 52.1115C8.05411 55.9228 6.01722 61.0275 6.06326 66.326C6.10931 71.6246 8.2346 76.6931 11.9814 80.4399C15.7282 84.1867 20.7967 86.312 26.0952 86.358C31.3938 86.404 36.4985 84.3672 40.3098 80.6861L47.221 73.7748" stroke="black" stroke-width="12.125" stroke-linecap="round" stroke-linejoin="round"/>
</g>
<defs>
<filter id="filter0_ii_1_375" x="-4.04167" y="0" width="100.586" height="96.4626" filterUnits="userSpaceOnUse" color-interpolation-filters="sRGB">
<feFlood flood-opacity="0" result="BackgroundImageFix"/>
<feBlend mode="normal" in="SourceGraphic" in2="BackgroundImageFix" result="shape"/>
<feColorMatrix in="SourceAlpha" type="matrix" values="0 0 0 0 0 0 0 0 0 0 0 0 0 0 0 0 0 0 127 0" result="hardAlpha"/>
<feOffset dx="-4.04167" dy="4.04167"/>
<feGaussianBlur stdDeviation="4.04167"/>
<feComposite in2="hardAlpha" operator="arithmetic" k2="-1" k3="1"/>
<feColorMatrix type="matrix" values="0 0 0 0 1 0 0 0 0 1 0 0 0 0 1 0 0 0 0.25 0"/>
<feBlend mode="normal" in2="shape" result="effect1_innerShadow_1_375"/>
<feColorMatrix in="SourceAlpha" type="matrix" values="0 0 0 0 0 0 0 0 0 0 0 0 0 0 0 0 0 0 127 0" result="hardAlpha"/>
<feOffset dx="4.04167" dy="4.04167"/>
<feGaussianBlur stdDeviation="6.0625"/>
<feComposite in2="hardAlpha" operator="arithmetic" k2="-1" k3="1"/>
<feColorMatrix type="matrix" values="0 0 0 0 0.2 0 0 0 0 0.199167 0 0 0 0 0.199217 0 0 0 0.1 0"/>
<feBlend mode="normal" in2="effect1_innerShadow_1_375" result="effect2_innerShadow_1_375"/>
</filter>
</defs>
</svg>
