<svg width="121" height="106" viewBox="0 0 121 106" fill="none" xmlns="http://www.w3.org/2000/svg">
<g filter="url(#filter0_ii_1_383)">
<path d="M80.6667 98.3125V88.2292C80.6667 82.8806 78.5421 77.7512 74.7601 73.9692C70.9781 70.1872 65.8486 68.0625 60.5001 68.0625H25.2084C19.8599 68.0625 14.7304 70.1872 10.9484 73.9692C7.16644 77.7512 5.04175 82.8806 5.04175 88.2292V98.3125M100.833 32.7708V63.0208M115.958 47.8958H85.7084M63.0209 27.7292C63.0209 38.8669 53.992 47.8958 42.8542 47.8958C31.7165 47.8958 22.6876 38.8669 22.6876 27.7292C22.6876 16.5914 31.7165 7.5625 42.8542 7.5625C53.992 7.5625 63.0209 16.5914 63.0209 27.7292Z" stroke="black" stroke-width="15.125" stroke-linecap="round" stroke-linejoin="round"/>
</g>
<defs>
<filter id="filter0_ii_1_383" x="-7.56242" y="0" width="136.125" height="110.917" filterUnits="userSpaceOnUse" color-interpolation-filters="sRGB">
<feFlood flood-opacity="0" result="BackgroundImageFix"/>
<feBlend mode="normal" in="SourceGraphic" in2="BackgroundImageFix" result="shape"/>
<feColorMatrix in="SourceAlpha" type="matrix" values="0 0 0 0 0 0 0 0 0 0 0 0 0 0 0 0 0 0 127 0" result="hardAlpha"/>
<feOffset dx="-5.04167" dy="5.04167"/>
<feGaussianBlur stdDeviation="5.04167"/>
<feComposite in2="hardAlpha" operator="arithmetic" k2="-1" k3="1"/>
<feColorMatrix type="matrix" values="0 0 0 0 1 0 0 0 0 1 0 0 0 0 1 0 0 0 0.25 0"/>
<feBlend mode="normal" in2="shape" result="effect1_innerShadow_1_383"/>
<feColorMatrix in="SourceAlpha" type="matrix" values="0 0 0 0 0 0 0 0 0 0 0 0 0 0 0 0 0 0 127 0" result="hardAlpha"/>
<feOffset dx="5.04167" dy="5.04167"/>
<feGaussianBlur stdDeviation="7.5625"/>
<feComposite in2="hardAlpha" operator="arithmetic" k2="-1" k3="1"/>
<feColorMatrix type="matrix" values="0 0 0 0 0.2 0 0 0 0 0.199167 0 0 0 0 0.199217 0 0 0 0.1 0"/>
<feBlend mode="normal" in2="effect1_innerShadow_1_383" result="effect2_innerShadow_1_383"/>
</filter>
</defs>
</svg>
