<svg width="307" height="51" viewBox="0 0 307 51" fill="none" xmlns="http://www.w3.org/2000/svg">
<path d="M75.1135 33.7965V25.2588C75.1135 20.8408 71.5448 17.2673 67.0831 17.2673H66.7358C65.001 17.2673 63.2658 17.8628 62.4233 18.9053V8.77897C62.4233 7.53732 61.4813 6.89282 60.5393 6.89282C59.5973 6.89282 58.6557 7.53773 58.6557 8.77897V40.0011C58.6557 41.1925 59.5977 41.7881 60.5393 41.7881C61.3822 41.7881 62.2247 41.2913 62.3735 40.2999C63.0673 40.9942 64.5049 41.7881 66.6364 41.7881H67.0827C71.4947 41.7881 75.1135 38.2145 75.1135 33.7965ZM71.3463 33.7965C71.3463 36.1296 69.4628 38.0162 67.0831 38.0162H66.6368C64.4063 38.0162 62.4237 36.5267 62.4237 34.0945V24.8617C62.4237 22.578 64.4067 21.0396 66.6368 21.0396H67.0831C69.4628 21.0396 71.3463 22.9261 71.3463 25.2588V33.7965ZM90.9269 39.9015C90.9269 38.9586 90.3318 38.0162 89.0433 38.0162C87.5062 37.966 86.3168 36.7749 86.3168 35.2357V8.77897C86.3168 7.53732 85.3752 6.89282 84.4328 6.89282C83.4912 6.89282 82.5492 7.53773 82.5492 8.77897V35.2357C82.5492 38.859 85.4245 41.7881 89.0433 41.7881C90.3318 41.7881 90.9269 40.8448 90.9269 39.9015ZM112.539 33.7965V25.2588C112.539 20.8408 108.97 17.2673 104.558 17.2673H104.063C99.6506 17.2673 96.0816 20.8408 96.0816 25.2588V33.7965C96.0816 38.2145 99.6506 41.7881 104.063 41.7881H104.558C108.97 41.7881 112.539 38.2145 112.539 33.7965ZM108.772 33.7965C108.772 36.1296 106.888 38.0162 104.558 38.0162H104.112C101.733 38.0162 99.8491 36.1296 99.8491 33.7965V25.2588C99.8491 22.9261 101.733 21.0396 104.063 21.0396H104.558C106.888 21.0396 108.772 22.9261 108.772 25.2588V33.7965V33.7965ZM135.391 33.7965C135.391 32.5063 134.449 31.861 133.507 31.861C132.615 31.861 131.673 32.5063 131.623 33.7965C131.524 36.1296 129.739 38.0162 127.41 38.0162H126.964C124.584 38.0162 122.701 36.1296 122.701 33.7965V25.2588C122.701 22.9261 124.584 21.0396 126.914 21.0396H127.41C129.739 21.0396 131.524 22.7767 131.623 25.3082C131.672 26.5499 132.615 27.1454 133.507 27.1454C134.449 27.1454 135.39 26.4997 135.39 25.2588C135.39 20.8408 131.772 17.2673 127.409 17.2673H126.914C122.552 17.2673 118.933 20.7914 118.933 25.2588V33.7965C118.933 38.2145 122.502 41.7881 126.914 41.7881H127.409C131.822 41.7881 135.391 38.2145 135.391 33.7965ZM159.135 39.9015C159.135 39.6039 159.085 39.257 158.887 38.9586L152.095 27.0454L158.242 20.4934C158.639 20.0963 158.788 19.6498 158.788 19.2028C158.788 18.2093 157.944 17.2669 156.855 17.2669C156.408 17.2669 155.913 17.4648 155.516 17.9122L146.097 27.9389V8.77897C146.097 7.53732 145.155 6.89282 144.213 6.89282C143.272 6.89282 142.33 7.53773 142.33 8.77897V39.9015C142.33 41.1427 143.272 41.7881 144.213 41.7881C145.155 41.7881 146.097 41.1427 146.097 39.9015V33.4977L149.418 29.9242L155.615 40.7946C156.011 41.4905 156.606 41.7881 157.201 41.7881C158.342 41.7881 159.135 40.8942 159.135 39.9015ZM180.548 33.7965C180.548 32.5063 179.606 31.861 178.665 31.861C177.773 31.861 176.83 32.5063 176.781 33.7965C176.682 36.1296 174.897 38.0162 172.568 38.0162H172.121C169.741 38.0162 167.858 36.1296 167.858 33.7965V25.2588C167.858 22.9261 169.741 21.0396 172.072 21.0396H172.568C174.897 21.0396 176.682 22.7767 176.781 25.3082C176.83 26.5499 177.773 27.1454 178.665 27.1454C179.607 27.1454 180.548 26.4997 180.548 25.2588C180.548 20.8408 176.93 17.2673 172.568 17.2673H172.072C167.71 17.2673 164.091 20.7914 164.091 25.2588V33.7965C164.091 38.2145 167.66 41.7881 172.072 41.7881H172.568C176.979 41.7881 180.548 38.2145 180.548 33.7965ZM203.946 39.9015V25.2588C203.946 20.8408 200.377 17.2673 195.964 17.2673H195.568C193.833 17.2673 192.097 17.8628 191.254 18.7563V8.77897C191.254 7.53732 190.313 6.89282 189.372 6.89282C188.43 6.89282 187.489 7.53773 187.489 8.77897V39.9015C187.489 41.1427 188.43 41.7881 189.372 41.7881C190.313 41.7881 191.254 41.1427 191.254 39.9015V25.0107C191.254 22.429 193.486 21.0396 195.767 21.0396C197.947 21.0396 200.178 22.38 200.178 25.2588V39.9015C200.178 41.1427 201.12 41.7881 202.061 41.7881C203.004 41.7881 203.946 41.1427 203.946 39.9015ZM228.731 39.8533C228.731 39.0582 228.234 38.2639 227.144 38.0655C226.252 37.917 225.855 37.3202 225.855 36.4272V24.9106C225.855 20.642 222.485 17.2669 218.073 17.2669H217.725C215.098 17.2669 211.925 18.3093 210.339 21.8833C210.191 22.1808 210.141 22.4784 210.141 22.7767C210.141 23.8192 211.083 24.5139 212.025 24.5139C212.67 24.5139 213.314 24.2164 213.71 23.5208C214.652 21.8828 215.693 21.0392 217.726 21.0392H218.073C220.254 21.0392 222.088 22.1314 222.088 25.0592C222.088 25.3078 222.088 25.7049 221.94 25.9033C220.751 27.5915 209.746 26.2009 209.398 34.0439V34.6394C209.398 39.2566 213.364 41.7876 217.379 41.7876H217.826C219.858 41.7876 221.742 41.0431 223.179 39.8031C223.824 40.746 224.865 41.4905 226.55 41.7383C226.649 41.7876 226.798 41.7876 226.897 41.7876C228.086 41.7881 228.731 40.8448 228.731 39.8533ZM222.088 33.7965C222.088 36.1296 220.154 38.0162 217.825 38.0162H217.379C214.851 38.0162 213.165 36.6757 213.165 34.541V34.1434C213.314 30.6687 218.42 30.8679 222.088 29.8752V33.7965ZM238.446 39.9015V19.1534C238.446 17.9122 237.504 17.2673 236.562 17.2673C235.621 17.2673 234.679 17.9126 234.679 19.1534V39.9015C234.679 41.1427 235.621 41.7881 236.562 41.7881C237.504 41.7881 238.446 41.1427 238.446 39.9015ZM262.834 39.9015V25.2588C262.834 19.7983 259.116 17.2673 254.903 17.2673H254.457C252.721 17.2673 251.086 17.8628 250.193 18.7563C249.996 17.7628 249.152 17.2673 248.31 17.2673C247.318 17.2673 246.377 17.962 246.377 19.1534V39.9015C246.377 41.1427 247.319 41.7881 248.261 41.7881C249.203 41.7881 250.144 41.1427 250.144 39.9015V25.2588C250.144 22.9261 252.077 21.0396 254.407 21.0396H254.853C257.233 21.0396 259.116 22.9261 259.116 25.2588V39.9015C259.116 41.1427 260.059 41.7881 261 41.7881C261.942 41.7881 262.834 41.1427 262.834 39.9015ZM282.287 39.9015V19.1534C282.287 17.9122 281.345 17.2673 280.403 17.2673C279.461 17.2673 278.52 17.9126 278.52 19.1534V39.9015C278.52 41.1427 279.462 41.7881 280.403 41.7881C281.345 41.7881 282.287 41.1427 282.287 39.9015ZM306.129 33.7965V25.2588C306.129 20.8408 302.56 17.2673 298.149 17.2673H297.653C293.241 17.2673 289.673 20.8408 289.673 25.2588V33.7965C289.673 38.2145 293.241 41.7881 297.653 41.7881H298.149C302.56 41.7881 306.129 38.2145 306.129 33.7965ZM302.362 33.7965C302.362 36.1296 300.479 38.0162 298.149 38.0162H297.703C295.322 38.0162 293.439 36.1296 293.439 33.7965V25.2588C293.439 22.9261 295.322 21.0396 297.653 21.0396H298.149C300.479 21.0396 302.362 22.9261 302.362 25.2588V33.7965Z" fill="white" fill-opacity="0.5"/>
<path d="M21.3283 23.1289C20.1804 23.1289 19.247 24.064 19.247 25.213C19.247 26.362 20.1808 27.2967 21.3283 27.2967C22.4757 27.2967 23.41 26.362 23.41 25.213C23.41 24.064 22.4761 23.1289 21.3283 23.1289Z" fill="white" fill-opacity="0.5"/>
<path d="M30.9517 17.3464C29.8039 17.3464 28.8713 18.2816 28.8713 19.4305C28.8713 20.58 29.8043 21.5143 30.9517 21.5143C32.0991 21.5143 33.0338 20.5795 33.0338 19.4305C33.0342 18.2816 32.0996 17.3464 30.9517 17.3464Z" fill="white" fill-opacity="0.5"/>
<path d="M40.5755 11.5647C39.4281 11.5647 38.4942 12.4994 38.4942 13.6484C38.4942 14.7978 39.4281 15.7337 40.5755 15.7337C41.7238 15.7337 42.6568 14.7982 42.6568 13.6484C42.6568 12.4994 41.7238 11.5647 40.5755 11.5647Z" fill="white" fill-opacity="0.5"/>
<path d="M11.7043 5.78223C10.5568 5.78223 9.62298 6.71734 9.62298 7.86675C9.62298 9.01575 10.5568 9.95045 11.7043 9.95045C12.8521 9.95045 13.7859 9.01575 13.7859 7.86675C13.7859 6.71734 12.8525 5.78223 11.7043 5.78223Z" fill="white" fill-opacity="0.5"/>
<path d="M21.3285 0C20.1807 0 19.2472 0.935525 19.2472 2.08452C19.2472 3.23393 20.1811 4.16904 21.3285 4.16904C22.4759 4.16904 23.4102 3.23393 23.4102 2.08452C23.4102 0.935525 22.4763 0 21.3285 0Z" fill="white" fill-opacity="0.5"/>
<path d="M21.3283 11.5647C20.1804 11.5647 19.247 12.4994 19.247 13.6484C19.247 14.7978 20.1808 15.7337 21.3283 15.7337C22.4757 15.7337 23.41 14.7982 23.41 13.6484C23.41 12.4994 22.4761 11.5647 21.3283 11.5647Z" fill="white" fill-opacity="0.5"/>
<path d="M30.9517 5.78223C29.8039 5.78223 28.8713 6.71734 28.8713 7.86675C28.8713 9.01575 29.8043 9.95045 30.9517 9.95045C32.0991 9.95045 33.0338 9.01575 33.0338 7.86675C33.0342 6.71734 32.0996 5.78223 30.9517 5.78223Z" fill="white" fill-opacity="0.5"/>
<path d="M30.9517 28.9111C29.8039 28.9111 28.8713 29.8458 28.8713 30.9944C28.8713 32.1438 29.8043 33.0785 30.9517 33.0785C32.0991 33.0785 33.0338 32.1438 33.0338 30.9944C33.0342 29.8458 32.0996 28.9111 30.9517 28.9111Z" fill="white" fill-opacity="0.5"/>
<path d="M40.5755 23.1289C39.4281 23.1289 38.4942 24.064 38.4942 25.213C38.4942 26.362 39.4281 27.2967 40.5755 27.2967C41.7238 27.2967 42.6568 26.362 42.6568 25.213C42.6568 24.064 41.7238 23.1289 40.5755 23.1289Z" fill="white" fill-opacity="0.5"/>
<path d="M30.9517 40.4749C29.8039 40.4749 28.8713 41.4096 28.8713 42.559C28.8713 43.708 29.8043 44.6427 30.9517 44.6427C32.0991 44.6427 33.0338 43.708 33.0338 42.559C33.0342 41.4096 32.0996 40.4749 30.9517 40.4749Z" fill="white" fill-opacity="0.5"/>
<path d="M40.5755 34.6929C39.4281 34.6929 38.4942 35.6276 38.4942 36.777C38.4942 37.926 39.4281 38.8607 40.5755 38.8607C41.7238 38.8607 42.6568 37.926 42.6568 36.777C42.6568 35.6276 41.7238 34.6929 40.5755 34.6929Z" fill="white" fill-opacity="0.5"/>
<path d="M21.3283 46.2571C20.1804 46.2571 19.247 47.1922 19.247 48.3412C19.247 49.4898 20.1808 50.4249 21.3283 50.4249C22.4757 50.4249 23.41 49.4898 23.41 48.3412C23.41 47.1922 22.4761 46.2571 21.3283 46.2571Z" fill="white" fill-opacity="0.5"/>
<path d="M21.3283 34.6929C20.1804 34.6929 19.247 35.6276 19.247 36.777C19.247 37.926 20.1808 38.8607 21.3283 38.8607C22.4757 38.8607 23.41 37.926 23.41 36.777C23.41 35.6276 22.4761 34.6929 21.3283 34.6929Z" fill="white" fill-opacity="0.5"/>
<path d="M11.7043 17.3464C10.5568 17.3464 9.62299 18.2816 9.62299 19.4305C9.62299 20.58 10.5568 21.5143 11.7043 21.5143C12.8521 21.5143 13.7859 20.5795 13.7859 19.4305C13.7859 18.2816 12.8525 17.3464 11.7043 17.3464Z" fill="white" fill-opacity="0.5"/>
<path d="M11.7043 40.4749C10.5568 40.4749 9.62299 41.4096 9.62299 42.559C9.62299 43.708 10.5568 44.6427 11.7043 44.6427C12.8521 44.6427 13.7859 43.708 13.7859 42.559C13.7859 41.4096 12.8525 40.4749 11.7043 40.4749Z" fill="white" fill-opacity="0.5"/>
<path d="M11.7043 28.9111C10.5568 28.9111 9.62299 29.8458 9.62299 30.9944C9.62299 32.1438 10.5568 33.0785 11.7043 33.0785C12.8521 33.0785 13.7859 32.1438 13.7859 30.9944C13.7859 29.8458 12.8525 28.9111 11.7043 28.9111Z" fill="white" fill-opacity="0.5"/>
<path d="M2.08087 11.5647C0.933028 11.5647 0 12.4994 0 13.6484C0 14.7978 0.933436 15.7337 2.08087 15.7337C3.2283 15.7337 4.16255 14.7982 4.16255 13.6484C4.16255 12.4994 3.2283 11.5647 2.08087 11.5647Z" fill="white" fill-opacity="0.5"/>
<path d="M2.08087 34.6929C0.933028 34.6929 0 35.6276 0 36.777C0 37.926 0.933436 38.8607 2.08087 38.8607C3.2283 38.8607 4.16255 37.926 4.16255 36.777C4.16255 35.6276 3.2283 34.6929 2.08087 34.6929Z" fill="white" fill-opacity="0.5"/>
<path d="M2.08087 23.1289C0.933028 23.1289 0 24.064 0 25.213C0 26.362 0.933436 27.2967 2.08087 27.2967C3.2283 27.2967 4.16255 26.362 4.16255 25.213C4.16255 24.064 3.2283 23.1289 2.08087 23.1289Z" fill="white" fill-opacity="0.5"/>
<path d="M236.531 6.78906C235.487 6.78906 234.637 7.63928 234.637 8.68501C234.637 9.73074 235.488 10.5814 236.531 10.5814C237.575 10.5814 238.425 9.73074 238.425 8.68501C238.425 7.63928 237.576 6.78906 236.531 6.78906Z" fill="white" fill-opacity="0.5"/>
<path d="M280.387 6.78906C279.342 6.78906 278.492 7.63928 278.492 8.68501C278.492 9.73074 279.343 10.5814 280.387 10.5814C281.431 10.5814 282.28 9.73074 282.28 8.68501C282.281 7.63928 281.431 6.78906 280.387 6.78906Z" fill="white" fill-opacity="0.5"/>
<path d="M270.452 38.1516C269.414 38.1516 268.568 38.9973 268.568 40.0374C268.568 41.0774 269.414 41.9239 270.452 41.9239C271.491 41.9239 272.335 41.0774 272.335 40.0374C272.335 38.9973 271.491 38.1516 270.452 38.1516Z" fill="white" fill-opacity="0.5"/>
</svg>
