<svg width="15" height="15" viewBox="0 0 15 15" fill="none" xmlns="http://www.w3.org/2000/svg">
<path fill-rule="evenodd" clip-rule="evenodd" d="M14.1499 7.06513C14.1499 7.54359 14.1012 8.02139 14.0055 8.48714C13.9122 8.94182 13.774 9.38821 13.593 9.81494C13.4161 10.2341 13.1967 10.6381 12.9404 11.0148C12.6879 11.3891 12.397 11.7403 12.0774 12.0604C11.7571 12.3791 11.4048 12.6692 11.0306 12.9228C10.6527 13.1774 10.2482 13.3965 9.82873 13.5742C9.40139 13.7542 8.95397 13.8922 8.49968 13.9853C8.03332 14.0813 7.55378 14.1302 7.07462 14.1302C6.59511 14.1302 6.11559 14.0813 5.64989 13.9853C5.19491 13.8922 4.74752 13.7542 4.32051 13.5742C3.90111 13.3965 3.4962 13.1774 3.11826 12.9228C2.74411 12.6693 2.39173 12.3791 2.07217 12.0604C1.75227 11.7403 1.46136 11.3891 1.20848 11.0148C0.95352 10.6381 0.733783 10.2341 0.556222 9.81494C0.375172 9.38821 0.236656 8.94179 0.143029 8.48714C0.048378 8.02139 0 7.54359 0 7.06513C0 6.58631 0.0483503 6.10748 0.143057 5.64276C0.236684 5.18808 0.375199 4.741 0.55625 4.31497C0.733811 3.89548 0.953547 3.49118 1.20851 3.11445C1.46139 2.73982 1.7523 2.3893 2.07219 2.06882C2.39176 1.75004 2.74414 1.46064 3.11829 1.20743C3.49623 0.951784 3.90114 0.732752 4.32054 0.554728C4.74755 0.374271 5.19491 0.235955 5.64992 0.143514C6.11562 0.0483081 6.59513 0 7.07465 0C7.5538 0 8.03332 0.0483081 8.49971 0.143514C8.954 0.235983 9.40139 0.374298 9.82876 0.554728C10.2482 0.732724 10.6527 0.951784 11.0306 1.20743C11.4048 1.46064 11.7572 1.75004 12.0774 2.06882C12.397 2.3893 12.6879 2.73982 12.9404 3.11445C13.1967 3.49118 13.4161 3.89551 13.593 4.31497C13.774 4.741 13.9122 5.18808 14.0055 5.64276C14.1012 6.10748 14.1499 6.58631 14.1499 7.06513ZM4.49666 1.60793C2.81177 2.40243 1.55425 3.95274 1.16213 5.82114C1.32141 5.82252 3.83923 5.85426 6.74016 5.0846C5.69443 3.22931 4.57716 1.71525 4.49666 1.60793ZM7.24075 6.01365C4.12977 6.94368 1.14451 6.87676 1.03743 6.87264C1.03568 6.93748 1.03258 7.00025 1.03258 7.06512C1.03258 8.61508 1.61816 10.0281 2.58065 11.0965C2.57857 11.0934 4.23204 8.16421 7.49261 7.11136C7.57136 7.08514 7.65153 7.06167 7.73098 7.03891C7.57934 6.69602 7.41382 6.35242 7.24075 6.01365ZM11.0648 2.53696C10.0011 1.60033 8.60436 1.03219 7.0746 1.03219C6.58368 1.03219 6.10726 1.09153 5.6509 1.20123C5.7414 1.32268 6.8763 2.82606 7.9096 4.72065C10.1894 3.86719 11.05 2.55903 11.0648 2.53696ZM8.14283 8.03865C8.12937 8.0431 8.11592 8.04694 8.10276 8.05175C4.53788 9.29273 3.37371 11.7937 3.36112 11.821C4.38685 12.6175 5.6734 13.0981 7.07464 13.0981C7.91136 13.0981 8.70836 12.9279 9.4335 12.6199C9.34403 12.0928 8.99303 10.2451 8.14283 8.03865ZM10.4509 12.0687C11.8076 11.1545 12.7711 9.70283 13.0399 8.02136C12.9155 7.98135 11.2251 7.44698 9.27489 7.7592C10.0674 9.93395 10.3894 11.7051 10.4509 12.0687ZM8.37466 5.61967C8.51489 5.90739 8.65069 6.20022 8.77608 6.49452C8.82066 6.6001 8.8642 6.7036 8.90668 6.80707C10.9823 6.54626 13.0271 6.98507 13.1146 7.00299C13.1007 5.57274 12.5884 4.2601 11.7406 3.23244C11.7292 3.24861 10.7602 4.64681 8.37466 5.61967Z" fill="white"/>
</svg>
