<svg width="15" height="15" viewBox="0 0 15 15" fill="none" xmlns="http://www.w3.org/2000/svg">
<path fill-rule="evenodd" clip-rule="evenodd" d="M7.0756 0C5.15415 0 4.91301 0.00840158 4.15834 0.0427449C3.40514 0.0772356 2.89103 0.196479 2.44117 0.371438C1.97584 0.552146 1.58112 0.793875 1.18787 1.18728C0.794318 1.58053 0.552588 1.97525 0.371291 2.44044C0.195889 2.89044 0.0764986 3.4047 0.0425975 4.1576C0.00884377 4.91227 0 5.15356 0 7.07501C0 8.99647 0.00854897 9.23687 0.0427449 9.99154C0.077383 10.7447 0.196626 11.2589 0.371438 11.7087C0.552293 12.174 0.794023 12.5688 1.18742 12.962C1.58053 13.3556 1.97526 13.5979 2.44029 13.7786C2.89044 13.9535 3.4047 14.0728 4.15775 14.1073C4.91242 14.1416 5.15341 14.15 7.07472 14.15C8.99632 14.15 9.23672 14.1416 9.99139 14.1073C10.7446 14.0728 11.2593 13.9535 11.7094 13.7786C12.1746 13.5979 12.5688 13.3556 12.9619 12.962C13.3554 12.5688 13.5971 12.174 13.7784 11.7089C13.9524 11.2589 14.0718 10.7446 14.1071 9.99169C14.141 9.23702 14.1499 8.99647 14.1499 7.07501C14.1499 5.15356 14.141 4.91242 14.1071 4.15775C14.0718 3.40455 13.9524 2.89044 13.7784 2.44058C13.5971 1.97526 13.3554 1.58053 12.9619 1.18728C12.5683 0.793728 12.1748 0.551998 11.709 0.371438C11.258 0.196479 10.7436 0.0772356 9.99036 0.0427449C9.23569 0.00840158 8.99544 0 7.07339 0H7.0756ZM6.44088 1.27496C6.62926 1.27466 6.83944 1.27496 7.07557 1.27496C8.9646 1.27496 9.18849 1.28174 9.93447 1.31564C10.6243 1.34718 10.9987 1.46244 11.2481 1.55928C11.5782 1.68752 11.8136 1.84081 12.0611 2.08844C12.3087 2.33606 12.462 2.57189 12.5905 2.90206C12.6874 3.15116 12.8028 3.52555 12.8342 4.21536C12.8681 4.96119 12.8755 5.18523 12.8755 7.07337C12.8755 8.96152 12.8681 9.18556 12.8342 9.93138C12.8026 10.6212 12.6874 10.9956 12.5905 11.2447C12.4623 11.5748 12.3087 11.8099 12.0611 12.0574C11.8135 12.305 11.5784 12.4583 11.2481 12.5866C10.999 12.6839 10.6243 12.7988 9.93447 12.8304C9.18864 12.8643 8.9646 12.8716 7.07557 12.8716C5.1864 12.8716 4.9625 12.8643 4.21668 12.8304C3.52686 12.7985 3.15248 12.6833 2.90294 12.5864C2.57277 12.4582 2.33693 12.3049 2.08931 12.0573C1.84168 11.8097 1.68839 11.5744 1.55986 11.2441C1.46302 10.995 1.34761 10.6206 1.31622 9.93079C1.28232 9.18497 1.27554 8.96093 1.27554 7.0716C1.27554 5.18228 1.28232 4.95942 1.31622 4.21359C1.34776 3.52378 1.46302 3.14939 1.55986 2.9C1.6881 2.56983 1.84168 2.334 2.08931 2.08637C2.33693 1.83875 2.57277 1.68545 2.90294 1.55693C3.15233 1.45964 3.52686 1.34467 4.21668 1.31298C4.86935 1.28351 5.12228 1.27466 6.44088 1.27319V1.27496ZM10.8522 2.44971C10.3834 2.44971 10.0032 2.82955 10.0032 3.29841C10.0032 3.76713 10.3834 4.14741 10.8522 4.14741C11.3209 4.14741 11.7012 3.76713 11.7012 3.29841C11.7012 2.82969 11.3209 2.44971 10.8522 2.44971ZM7.07561 3.44168C5.06911 3.44168 3.4423 5.06849 3.4423 7.07499C3.4423 9.0815 5.06911 10.7076 7.07561 10.7076C9.08212 10.7076 10.7083 9.0815 10.7083 7.07499C10.7083 5.06849 9.08212 3.44168 7.07561 3.44168ZM7.07559 4.71666C8.37798 4.71666 9.43392 5.77245 9.43392 7.07499C9.43392 8.37739 8.37798 9.43333 7.07559 9.43333C5.77305 9.43333 4.71725 8.37739 4.71725 7.07499C4.71725 5.77245 5.77305 4.71666 7.07559 4.71666Z" fill="white"/>
</svg>
