<svg width="13" height="11" viewBox="0 0 13 11" fill="none" xmlns="http://www.w3.org/2000/svg">
<path fill-rule="evenodd" clip-rule="evenodd" d="M6.23545 2.82307L6.26329 3.28208L5.79934 3.22588C4.11057 3.01042 2.63522 2.27974 1.38256 1.05257L0.770153 0.443675L0.612411 0.893324C0.278369 1.89567 0.491784 2.95421 1.18771 3.66616C1.55886 4.0596 1.47535 4.11581 0.835105 3.88162C0.612411 3.80667 0.417553 3.75047 0.398995 3.77857C0.334042 3.84414 0.556737 4.6966 0.733037 5.03384C0.97429 5.50223 1.46607 5.96124 2.00425 6.2329L2.45892 6.44836L1.92074 6.45773C1.40112 6.45773 1.38256 6.4671 1.43824 6.66382C1.62382 7.27272 2.35685 7.91909 3.1734 8.20012L3.7487 8.39684L3.24763 8.69661C2.50532 9.12752 1.6331 9.37108 0.760874 9.38982C0.343321 9.39918 0 9.43665 0 9.46476C0 9.55843 1.13203 10.083 1.79084 10.2891C3.76725 10.898 6.11483 10.6357 7.87783 9.5959C9.13049 8.85586 10.3831 7.38513 10.9677 5.96124C11.2832 5.20246 11.5987 3.81604 11.5987 3.15094C11.5987 2.72002 11.6265 2.66382 12.1461 2.14859C12.4524 1.84883 12.74 1.52096 12.7957 1.42728C12.8885 1.2493 12.8792 1.2493 12.406 1.40855C11.6172 1.68958 11.5059 1.65211 11.8956 1.23056C12.1833 0.930794 12.5266 0.387469 12.5266 0.228218C12.5266 0.200115 12.3874 0.246953 12.2297 0.331262C12.0626 0.424939 11.6915 0.565455 11.4131 0.649764L10.912 0.809014L10.4574 0.499881C10.2068 0.331262 9.85425 0.143909 9.66867 0.0877026C9.19544 -0.043445 8.47168 -0.0247096 8.04485 0.125173C6.88498 0.546719 6.15194 1.63337 6.23545 2.82307Z" fill="white"/>
</svg>
