<svg width="15" height="11" viewBox="0 0 15 11" fill="none" xmlns="http://www.w3.org/2000/svg">
<path fill-rule="evenodd" clip-rule="evenodd" d="M12.6031 0.30363C13.212 0.470701 13.6915 0.962973 13.8542 1.58811C14.1499 2.72111 14.1499 5.08511 14.1499 5.08511C14.1499 5.08511 14.1499 7.44903 13.8542 8.58211C13.6915 9.20725 13.212 9.69952 12.6031 9.86668C11.4998 10.1702 7.07494 10.1702 7.07494 10.1702C7.07494 10.1702 2.65013 10.1702 1.54668 9.86668C0.937831 9.69952 0.458344 9.20725 0.29562 8.58211C0 7.44903 0 5.08511 0 5.08511C0 5.08511 0 2.72111 0.29562 1.58811C0.458344 0.962973 0.937831 0.470701 1.54668 0.30363C2.65013 0 7.07494 0 7.07494 0C7.07494 0 11.4998 0 12.6031 0.30363ZM5.7484 3.09524V7.51708L9.28587 5.30624L5.7484 3.09524Z" fill="white"/>
</svg>
