<svg width="16" height="13" fill="none" xmlns="http://www.w3.org/2000/svg"><path d="M5.04 5.724a3.1 3.1 0 011.404 1.188c.336.528.504 1.152.504 1.872 0 1.032-.324 1.872-.972 2.52-.648.624-1.476.936-2.484.936s-1.848-.324-2.52-.972C.324 10.62 0 9.792 0 8.784c0-.48.06-.96.18-1.44s.384-1.2.792-2.16L3.06 0h3.564L5.04 5.724zm8.496 0a3.1 3.1 0 011.404 1.188c.336.528.504 1.152.504 1.872 0 1.032-.324 1.872-.972 2.52-.648.624-1.476.936-2.484.936s-1.848-.324-2.52-.972c-.648-.648-.972-1.476-.972-2.484 0-.48.06-.96.18-1.44s.384-1.2.792-2.16L11.556 0h3.564l-1.584 5.724z" fill="#080808"/></svg>