<svg width="202" height="178" viewBox="0 0 202 178" fill="none" xmlns="http://www.w3.org/2000/svg">
<path d="M95.0166 1.51544C98.6458 -0.505088 103.062 -0.505086 106.691 1.51544L124.047 11.178C125.809 12.1591 127.79 12.6801 129.807 12.6931L150.174 12.8241C154.594 12.8526 158.64 15.3076 160.705 19.2143L168.653 34.243C169.712 36.2456 171.316 37.9075 173.28 39.0366L188.773 47.9439C193.074 50.4166 195.41 55.2809 194.65 60.1835L192.367 74.9305C191.982 77.4183 192.389 79.9642 193.53 82.208L200.403 95.7175C202.728 100.288 201.892 105.832 198.322 109.513L186.992 121.195C185.309 122.931 184.189 125.134 183.78 127.517L181.134 142.923C180.339 147.548 176.922 151.285 172.386 152.489L153.64 157.466C151.593 158.01 149.726 159.085 148.229 160.584L135.108 173.721C132.123 176.709 127.786 177.908 123.69 176.878L103.781 171.87C101.859 171.387 99.8481 171.387 97.9266 171.87L78.0172 176.878C73.921 177.908 69.5848 176.709 66.5999 173.721L53.4782 160.584C51.9814 159.085 50.1146 158.01 48.0675 157.466L29.3214 152.489C24.7859 151.285 21.3685 147.548 20.574 142.923L17.9275 127.517C17.5181 125.134 16.3984 122.931 14.7151 121.195L3.38585 109.513C-0.184346 105.832 -1.02058 100.288 1.30473 95.7175L8.17751 82.208C9.319 79.9642 9.72592 77.4183 9.34069 74.9305L7.0571 60.1835C6.29793 55.2809 8.63385 50.4166 12.9347 47.9439L28.4278 39.0366C30.3918 37.9075 31.996 36.2456 33.055 34.243L41.0021 19.2143C43.0679 15.3076 47.1139 12.8526 51.533 12.8241L71.901 12.6931C73.9178 12.6801 75.8988 12.159 77.661 11.178L95.0166 1.51544Z" fill="#EBFC56"/>
</svg>
