<svg width="16" height="18" fill="none" xmlns="http://www.w3.org/2000/svg"><g opacity=".5" fill="#fff"><path d="M11.983 3.647c.622 0 1.126-.533 1.126-1.196V1.199C13.109.535 12.605 0 11.983 0c-.623 0-1.126.534-1.126 1.199V2.45c.001.663.504 1.196 1.126 1.196z"/><path d="M15.983 2.073h-2.267v.61c0 1.005-.767 1.825-1.714 1.825s-1.713-.82-1.713-1.825v-.61H5.716v.61c0 1.005-.77 1.825-1.715 1.825-.946 0-1.714-.819-1.714-1.825v-.61L0 2.043V17.28h14.858L16 17.277l-.017-15.204zm-1.126 13.994H1.144V6.333h13.714v9.734h-.001z"/><path d="M3.984 3.647c.622 0 1.127-.533 1.127-1.196V1.199C5.11.534 4.606 0 3.984 0S2.86.534 2.86 1.199V2.45c0 .663.503 1.196 1.125 1.196zM7.52 7.64H5.719v1.692h1.8V7.639zm2.914 0H8.63v1.692h1.803V7.639zm2.697 0h-1.8v1.692h1.8V7.639zM7.52 10.45H5.719v1.69h1.8v-1.69zm2.914 0H8.63v1.69h1.803v-1.69zm2.697 0h-1.8v1.69h1.8v-1.69zM7.52 13.315H5.719v1.692h1.8v-1.692zM4.66 10.45h-1.8v1.69h1.8v-1.69zm0 2.865h-1.8v1.692h1.8v-1.692zm5.774 0H8.63v1.692h1.803v-1.692zm2.697 0h-1.8v1.692h1.8v-1.692z"/></g></svg>