<svg width="24" height="24" fill="none" xmlns="http://www.w3.org/2000/svg"><circle opacity=".32" cx="12" cy="12" r="11.5" stroke="#fff"/><g clip-path="url(#clip0_1_157)" fill="#fff"><path d="M17.803 17.035h.003v-3.976c0-1.944-.418-3.442-2.692-3.442-1.093 0-1.826.6-2.126 1.168h-.031v-.987H10.8v7.236h2.245v-3.583c0-.943.179-1.855 1.347-1.855 1.151 0 1.168 1.076 1.168 1.916v3.523h2.242zM7.147 9.798h2.247v7.237H7.147V9.798zM8.27 6.193c-.719 0-1.302.583-1.302 1.302 0 .718.583 1.314 1.302 1.314.718 0 1.301-.596 1.301-1.314 0-.719-.583-1.302-1.301-1.302z"/></g><defs><clipPath id="clip0_1_157"><path fill="#fff" transform="translate(6.968 6.193)" d="M0 0h10.839v10.839H0z"/></clipPath></defs></svg>