<svg width="16" height="18" fill="none" xmlns="http://www.w3.org/2000/svg"><path d="M1.084 10.017l7.363-7.805 1.228 1.301-7.363 7.805-1.228-1.3zM0 12.47l1.806-.821-1.032-1.094L0 12.47zM11.515 1.561a.96.96 0 000-1.3.853.853 0 00-1.227 0l-.614.65 1.227 1.301.614-.65zm-2.661.217l.41-.433 1.227 1.3-.41.434-1.227-1.3zm5.699 2.624H16V1.156L.79 17.28H16v-1.226h-1.447c-.16 0-.289-.138-.289-.307 0-.17.13-.306.29-.306h1.445v-1.227h-.867a.299.299 0 01-.29-.307c0-.169.13-.306.29-.306h.867v-1.227h-1.446a.298.298 0 01-.289-.306c0-.17.13-.307.29-.307h1.445v-1.227h-.867a.298.298 0 01-.29-.306c0-.17.13-.307.29-.307h.867V8.695h-1.446c-.16 0-.289-.138-.289-.307 0-.17.13-.307.29-.307h1.445V6.855h-.867c-.16 0-.29-.138-.29-.307 0-.17.13-.306.29-.306h.867V5.015h-1.446c-.16 0-.289-.137-.289-.307 0-.169.13-.306.29-.306zm-.867 10.119c0 .169-.13.306-.29.306H7.074a.29.29 0 01-.267-.19.32.32 0 01.063-.333l6.322-6.702a.277.277 0 01.315-.067.31.31 0 01.179.284v6.702z" opacity=".5" fill="#fff"/></svg>